# xmcd
#
# Track frame offsets: 
#        150
#        17745
#        36192
#        57002
#        76145
#        93720
#        105122
#        116392
#        136407
#        155320
#        171942
#        185277
#        209122
#        232287
#
# Disc length: 3226 seconds
#
# Revision: 41
# Processed by: cddbd v1.5.2PL0 Copyright (c) Steve Scherf et al.
# Submitted via: ExactAudioCopy v1.0b3
#
DISCID=b40c980e
DTITLE=Paul McCartney - Flaming Pie
DYEAR=1997
DGENRE=Folk
TTITLE0=The song we were singing (1995)
TTITLE1=The world tonight (1995)
TTITLE2=If you wanna (1995)
TTITLE3=Somedays (1959)
TTITLE4=Young boy (1995)
TTITLE5=Calico skies (1929)
TTITLE6=Flaming pie (1996)
TTITLE7=Heaven on a Sunday (1996)
TTITLE8=Used to be bad (1959)
TTITLE9=Souvenir (1996)
TTITLE10=Little willow (1995)
TTITLE11=Really love you (1996)
TTITLE12=Beautiful night (1996)
TTITLE13=Great day (1992)
EXTD=YEAR: 1997
EXTT0=
EXTT1=
EXTT2=
EXTT3=
EXTT4=
EXTT5=
EXTT6=
EXTT7=
EXTT8=
EXTT9=
EXTT10=
EXTT11=
EXTT12=
EXTT13=
PLAYORDER=
